<svg width="27" height="27" viewBox="0 0 27 27" fill="none" xmlns="http://www.w3.org/2000/svg">
<path d="M25.9228 3.3455L22.1938 24.6402C22.1627 24.7305 21.865 25.5141 21.1166 25.851C20.8967 25.9487 20.6679 25.9999 20.428 25.9999C20.1171 25.9999 19.7928 25.9169 19.4552 25.7509L19.3353 25.6728L14.3447 21.3958L11.253 24.5474C10.9798 24.7842 10.5534 24.9502 10.1269 24.7696C9.63832 24.606 9.36069 23.8126 9.18967 23.2096C8.91649 22.2429 7.67938 17.7145 7.344 16.4865L2.28896 14.5848C2.16236 14.5336 1.12737 14.0941 1.00965 13.0347C0.876391 11.8604 2.16458 11.3331 2.31117 11.277C3.11962 10.8937 23.0089 1.51703 23.7374 1.19479H23.7396C24.4325 0.889642 25.1011 0.94579 25.5275 1.34371C25.834 1.62933 26.1494 2.2079 25.9228 3.3455Z" fill="black" stroke="black" stroke-width="1.95312" stroke-miterlimit="10" stroke-linejoin="round"/>
<path d="M25.5276 1.34372C25.1011 0.945805 24.4326 0.889657 23.7396 1.19481H23.7374C23.0089 1.51705 3.11963 10.8938 2.31117 11.277C2.16459 11.3332 0.876391 11.8605 1.00965 13.0347C1.12737 14.0942 2.16237 14.5336 2.28896 14.5849L7.34402 16.4866C7.6794 17.7145 8.91651 22.243 9.18969 23.2097C9.36071 23.8127 9.63834 24.6061 10.127 24.7696C10.5534 24.9503 10.9798 24.7843 11.253 24.5475L14.3447 21.3959L19.3353 25.6729L19.4553 25.751C19.7929 25.917 20.1171 26 20.4281 26C20.668 26 20.8967 25.9487 21.1166 25.8511C21.8651 25.5142 22.1627 24.7306 22.1938 24.6402L25.9229 3.34552C26.1495 2.20791 25.8341 1.62935 25.5276 1.34372ZM11.8038 17.2482L10.0981 22.2479L8.39235 15.9983L21.4697 5.37417L11.8038 17.2482Z" fill="white"/>
</svg>
