<svg width="30" height="25" viewBox="0 0 30 25" fill="none" xmlns="http://www.w3.org/2000/svg">
<path fill-rule="evenodd" clip-rule="evenodd" d="M28.4929 0.0441677C27.9868 0.190509 0.671181 10.3565 0.494235 10.4643C0.12239 10.691 -0.0848876 11.2098 0.0331546 11.6182C0.110833 11.887 0.361408 12.1969 0.595733 12.314C0.692537 12.3623 2.39283 12.9796 4.37414 13.6857C6.35552 14.3917 7.98646 14.9785 7.99849 14.9897C8.01051 15.0009 8.48092 16.6374 9.04379 18.6264C9.60672 20.6153 10.0977 22.2978 10.1347 22.3651C10.4255 22.8929 11.162 23.1273 11.7135 22.8677C11.7942 22.8297 12.7797 22.1826 13.9035 21.4296L15.9467 20.0607L16.4849 20.4054C18.3571 21.6047 23.4647 24.8169 23.6298 24.8989C23.7574 24.9622 23.9583 24.9984 24.1903 24.9999C24.4991 25.0019 24.5892 24.9781 24.8064 24.8378C24.9599 24.7386 25.1122 24.5761 25.1905 24.4278C25.3637 24.1001 30.0429 1.26919 29.9997 0.962671C29.9077 0.309791 29.157 -0.147875 28.4929 0.0441677ZM23.2122 4.60438C23.0027 4.79576 20.3496 7.17195 17.3164 9.88476C10.9004 15.623 10.9194 15.6055 10.8635 15.8428C10.8405 15.9405 10.8022 15.9995 10.7784 15.974C10.7546 15.9485 10.5941 15.4269 10.4216 14.815C10.09 13.6386 9.95229 13.3633 9.61324 13.1999C9.5216 13.1558 8.36816 12.7356 7.04998 12.2662C5.73186 11.7968 4.61457 11.3925 4.56716 11.3677C4.50914 11.3375 6.19024 10.6887 9.72535 9.37735C12.6097 8.30736 16.8837 6.71975 19.2232 5.84924C21.5626 4.97879 23.5029 4.26424 23.5348 4.26146C23.5668 4.25861 23.4216 4.41294 23.2122 4.60438ZM26.8969 4.62532C26.8674 4.7681 26.057 8.72879 25.0962 13.4268C24.1353 18.1247 23.3349 21.9819 23.3174 21.9982C23.2762 22.0366 13.8825 16.1045 13.9002 16.0512C13.9178 15.9983 26.8686 4.37363 26.9151 4.36909C26.9346 4.36724 26.9264 4.48253 26.8969 4.62532ZM12.5567 17.9229C13.2525 18.3589 13.8213 18.7279 13.8207 18.7429C13.8186 18.7939 11.9427 20.0133 11.9112 19.984C11.8941 19.968 11.6967 19.307 11.4726 18.5153C11.2486 17.7234 11.0491 17.0264 11.0295 16.9662C10.9981 16.8703 11.0119 16.8736 11.1426 16.9936C11.2245 17.0687 11.8608 17.4869 12.5567 17.9229Z" fill="white"/>
</svg>
