<svg width="35" height="25" viewBox="0 0 35 25" fill="none" xmlns="http://www.w3.org/2000/svg">
<path fill-rule="evenodd" clip-rule="evenodd" d="M14.6659 0.0140189C14.0002 0.0747719 13.1564 0.236493 12.8187 0.368053C12.2388 0.593965 11.5162 1.39965 11.6499 1.67128C11.6744 1.7212 11.8089 1.78875 11.9487 1.82131C12.5762 1.96765 13.1055 2.41475 13.3428 2.99882C13.7483 3.99725 13.9307 7.11997 13.7125 9.33062C13.5684 10.7919 13.5074 11.1306 13.2937 11.6605C12.7202 13.0818 11.4032 11.9311 9.95166 8.74097C9.43511 7.60574 7.98143 3.96211 7.65706 2.9898C7.26502 1.8147 7.14091 1.59832 6.69517 1.31346L6.31894 1.07303L3.47959 1.09864C0.915557 1.12175 0.61876 1.13902 0.4185 1.27643C0.101041 1.49435 -0.0345638 1.79184 0.00744485 2.1787C0.0523955 2.59314 1.1293 5.59951 1.92288 7.52608C3.46789 11.2769 4.77645 14.0005 6.17533 16.3769C8.23273 19.8722 9.14303 21.0062 11.245 22.693C12.2266 23.4807 12.935 23.9213 13.8107 24.2888C15.014 24.7939 15.5378 24.891 17.3342 24.9427C19.1221 24.9941 19.6358 24.9293 20.0146 24.6047C20.3266 24.3374 20.4231 23.9686 20.4813 22.8217C20.5388 21.69 20.7148 20.7194 20.9567 20.2011C21.1701 19.7437 21.634 19.2155 21.8329 19.2031C22.5274 19.1602 22.9162 19.5225 24.3669 21.5649C25.727 23.4798 26.2297 24.0433 26.9812 24.4952C27.3199 24.6989 27.7355 24.9055 27.9048 24.9543C28.3153 25.0725 33.8566 24.9396 34.2143 24.8029C34.5685 24.6674 34.9501 24.1974 34.9588 23.8857C34.9827 23.0327 34.8837 22.6482 34.4086 21.747C33.7841 20.5625 33.2475 19.8061 31.421 17.535C29.4813 15.1233 29.3458 14.8988 29.3431 14.092C29.3408 13.4147 29.5928 12.8943 31.2957 10.061C33.6978 6.06423 34.6597 4.13371 34.9271 2.77265C35.084 1.97444 34.9947 1.5893 34.59 1.31759L34.3019 1.12424L30.8468 1.15312C28.4043 1.17348 27.3423 1.21129 27.2231 1.28201C26.9913 1.41959 26.7455 1.92125 26.4374 2.88582C25.6167 5.45489 23.9271 9.15601 22.8136 10.8235C22.3705 11.4871 21.6819 12.1663 21.4521 12.1663C21.1314 12.1663 20.867 11.9062 20.6665 11.3936L20.4815 10.9203L20.5002 6.45891C20.5204 1.66114 20.5117 1.51944 20.1582 0.885957C19.8099 0.262015 18.961 0.0480474 16.6843 0.0104957C15.7623 -0.00479994 14.8541 -0.00316723 14.6659 0.0140189Z" fill="white"/>
</svg>
