<svg width="25" height="25" viewBox="0 0 25 25" fill="none" xmlns="http://www.w3.org/2000/svg">
<path d="M12.048 0.002221C10.7562 -0.0172732 9.7813 0.0802028 8.9648 0.752798C8.62967 1.02573 8.39203 1.37665 8.20923 1.78606C8.11174 1.99076 8.02034 2.17596 7.97769 2.60486C7.95331 2.80957 7.93503 3.15074 8.06908 3.52115C8.20314 3.90131 8.48952 4.15475 8.68451 4.20349C8.83074 4.23273 9.1415 4.43744 9.19634 4.55441C9.3243 4.84684 9.37305 5.06129 9.39133 5.17826C9.40961 5.29524 9.40351 5.21725 9.40351 5.21725V5.33423C9.40351 5.33423 9.45226 6.56244 9.42179 7.82964C9.40351 8.4535 9.36695 9.1066 9.30602 9.54524C9.24509 9.98389 9.09275 10.0911 9.31211 9.88641C9.15978 10.0326 9.21462 10.0911 9.02573 9.93515C8.83074 9.78894 8.325 9.1066 7.66084 7.19604C6.99667 5.27574 6.5153 4.28147 6.40562 4.06702C6.36297 3.87207 6.25938 3.47241 5.90597 3.03376C5.44897 2.4684 4.97979 2.45865 4.97979 2.45865L4.93714 2.4489H1.531C1.531 2.4489 1.33601 2.45865 1.11056 2.53663C0.885109 2.61461 0.562164 2.70234 0.257501 3.3067H0.251408C-0.0593498 3.9403 -0.00451018 4.51542 0.0198629 4.86634C0.0503293 5.227 0.117355 5.50969 0.117355 5.50969L0.129542 5.56817L0.147822 5.62666C0.147822 5.62666 2.74965 14.5068 5.85723 19.9168C8.7759 25.0051 12.1577 24.9077 12.1577 24.9077H14.0771L14.1197 24.8979C14.1197 24.8979 14.7351 24.9466 15.2531 24.0206C15.5151 23.543 15.576 23.0946 15.6065 22.7632C15.643 22.422 15.643 22.1491 15.643 22.1491V22.227C15.643 22.227 15.6674 21.5837 15.7771 20.9111C15.8319 20.5797 15.9111 20.2482 15.9843 20.063C16.0208 19.9558 16.0208 19.9851 16.033 19.9558C16.1671 20.1118 16.3864 20.4724 16.618 20.9306C17.0932 21.8371 17.6294 23.0946 18.3789 23.9621C18.9212 24.5762 19.4331 24.8492 19.823 24.9466C20.085 25.0149 20.2739 25.0051 20.4019 24.9856L23.0525 24.9077H23.0768C23.0768 24.9077 23.6252 24.8882 24.1736 24.3325C24.4417 24.0596 24.7525 23.5625 24.8561 22.8509C24.9657 22.1393 24.8439 21.3692 24.588 20.6577C24.6733 20.9013 24.5697 20.5797 24.4905 20.3262C24.4113 20.0728 24.2894 19.7316 24.1066 19.3027C23.7532 18.4644 23.1682 17.2849 22.1994 15.7838C21.7424 15.082 21.4499 14.692 21.2671 14.4191C21.322 14.2924 21.3281 14.2826 21.5352 13.8927C21.8643 13.2786 22.3456 12.3721 22.955 11.0172C23.6862 9.37953 24.2163 8.0441 24.5575 6.93285C24.8987 5.83136 25.1729 4.91507 24.8683 3.78434C24.7037 3.17023 24.4113 2.93629 24.198 2.79007C23.9786 2.64386 23.7837 2.58537 23.6009 2.53663C23.2413 2.4489 22.9245 2.4489 22.9245 2.4489L19.8352 2.48789C19.7438 2.45865 19.3904 2.35142 18.9334 2.81931C18.4825 3.26771 18.3789 3.74535 18.3545 3.89156C18.2814 4.05727 17.7696 5.21725 17.0567 7.24478C16.3377 9.2918 15.8502 9.84742 15.7893 9.89616C15.771 9.86692 15.8075 9.87667 15.7222 9.79869C15.6857 9.74994 15.6491 9.71095 15.6187 9.18458C15.5943 8.6582 15.6248 7.82964 15.6248 6.85487C15.6248 4.75911 15.7405 3.66737 15.6735 2.62436C15.643 2.09798 15.509 1.45463 15.2165 1.02573C14.924 0.606581 14.6072 0.450618 14.2781 0.314148C13.7602 0.109447 13.0595 0.0217177 12.048 0.002221ZM12.0358 2.49764C12.9803 2.51713 13.6444 2.63411 13.8882 2.73158C14.0953 2.81931 14.1258 2.85831 14.1197 2.83881C14.1197 2.85831 14.1197 2.84856 14.1197 2.8778C14.1441 3.29695 14.0649 4.64214 14.0649 6.85487C14.0649 7.72242 14.0222 8.56072 14.0649 9.39903C14.1075 10.2373 14.2964 11.2608 14.8509 11.8652H14.857C14.79 11.797 15.5577 12.7133 16.2889 12.2941C17.0201 11.8652 17.599 10.793 18.4216 8.46324C19.1406 6.39673 19.6707 5.23675 19.6707 5.23675L19.7194 5.11978L19.756 5.00281C19.756 5.00281 19.7438 4.99306 19.756 4.98331L22.9245 4.94432C22.9245 4.94432 23.1439 4.94432 23.3571 5.00281C23.3632 5.00281 23.3693 5.00281 23.3754 5.00281C23.3449 5.0223 23.3693 5.14902 23.156 5.84111C22.8818 6.72815 22.3883 7.99535 21.6876 9.56474C21.1087 10.8417 20.6761 11.6702 20.3531 12.2746C20.0302 12.8692 19.7865 13.1519 19.628 13.9317C19.5488 14.3119 19.5671 14.8773 19.6829 15.2574C19.7926 15.6278 19.9266 15.8325 20.0607 16.0372C20.3288 16.4466 20.6456 16.8463 21.1087 17.5774C22.0166 18.981 22.5284 20.0143 22.8148 20.6966C22.9611 21.0476 23.0464 21.2913 23.1012 21.4667C23.156 21.6422 23.1195 21.5739 23.2413 21.9054C23.3449 22.2075 23.3267 22.2465 23.3267 22.227C23.2231 22.3245 22.9611 22.4122 22.955 22.4122L20.3044 22.4902L20.2313 22.5195C20.2313 22.5195 20.2374 22.5292 20.0728 22.4902C19.9022 22.4415 19.6341 22.3245 19.2929 21.9346C18.8725 21.457 18.3424 20.3457 17.8183 19.332C17.5624 18.8348 17.3004 18.3474 16.9714 17.9575C16.6423 17.5676 16.1244 17.207 15.5943 17.4896C15.1373 17.7236 14.8387 18.2597 14.6498 18.7568C14.4609 19.2637 14.3513 19.7901 14.266 20.2677C14.1075 21.2328 14.0832 22.1003 14.0832 22.1003V22.1783C14.0832 22.1783 14.0832 22.2368 14.071 22.3245C14.0405 22.344 13.9978 22.3927 13.9735 22.4122H12.1089C12.1089 22.4122 9.53147 22.6267 7.00276 18.2402C4.29735 13.5126 1.8905 5.60716 1.68942 4.94432H4.82746C4.85793 4.96381 4.96761 5.03205 4.95542 5.0223C4.8823 4.92482 4.99198 5.13927 4.99198 5.13927L5.04072 5.32448L5.12603 5.48044C5.12603 5.48044 5.6074 6.41623 6.29594 8.40476C7.03323 10.5395 7.65474 11.6508 8.34938 12.1869C9.04401 12.723 9.7752 12.3428 10.086 12.0602C10.6648 11.524 10.7318 10.7735 10.8293 10.0814C10.9268 9.38928 10.9573 8.64845 10.9756 7.92712C11.0121 6.54294 10.9634 5.36347 10.9634 5.27574C10.9573 5.2465 10.9573 4.90533 10.8964 4.53491C10.8293 4.15475 10.7075 3.65762 10.4759 3.13124C10.3784 2.91679 10.287 3.02402 10.1835 2.86805C10.6161 2.6731 11.0792 2.47814 12.0358 2.49764Z" fill="white"/>
</svg>
